KumbhSans-BlackDisplay.ufo
<glyph name="two" format="1">
  <advance width="1246"/>
  <unicode hex="0032"/>
  <outline>
    <contour>
      <point x="1113" y="0" type="line"/>
      <point x="1113" y="345" type="line"/>
      <point x="509" y="345" type="line"/>
      <point x="998" y="702"/>
      <point x="1136" y="884"/>
      <point x="1136" y="1108" type="curve" smooth="yes"/>
      <point x="1136" y="1367"/>
      <point x="954" y="1530"/>
      <point x="671" y="1530" type="curve" smooth="yes"/>
      <point x="495" y="1530"/>
      <point x="308" y="1467"/>
      <point x="138" y="1351" type="curve"/>
      <point x="162" y="1314" type="line"/>
      <point x="262" y="1375"/>
      <point x="359" y="1407"/>
      <point x="445" y="1407" type="curve" smooth="yes"/>
      <point x="624" y="1407"/>
      <point x="734" y="1269"/>
      <point x="734" y="1042" type="curve" smooth="yes"/>
      <point x="734" y="743"/>
      <point x="543" y="458"/>
      <point x="120" y="127" type="curve"/>
      <point x="120" y="0" type="line"/>
    </contour>
  </outline>
</glyph>
<glyph name="question" format="1">
  <advance width="990"/>
  <unicode hex="003F"/>
  <outline>
    <contour>
      <point x="95" y="1353" type="line"/>
      <point x="188" y="1421"/>
      <point x="284" y="1457"/>
      <point x="369" y="1457" type="curve" smooth="yes"/>
      <point x="514" y="1457"/>
      <point x="605" y="1354"/>
      <point x="605" y="1189" type="curve" smooth="yes"/>
      <point x="605" y="1076"/>
      <point x="562" y="1008"/>
      <point x="513" y="930" type="curve" smooth="yes"/>
      <point x="447" y="824"/>
      <point x="368" y="700"/>
      <point x="368" y="420" type="curve"/>
      <point x="412" y="420" type="line"/>
      <point x="412" y="663"/>
      <point x="560" y="756"/>
      <point x="700" y="844" type="curve" smooth="yes"/>
      <point x="828" y="924"/>
      <point x="950" y="1000"/>
      <point x="950" y="1174" type="curve" smooth="yes"/>
      <point x="950" y="1387"/>
      <point x="768" y="1530"/>
      <point x="508" y="1530" type="curve" smooth="yes"/>
      <point x="355" y="1530"/>
      <point x="200" y="1480"/>
      <point x="70" y="1389" type="curve"/>
    </contour>
    <contour>
      <point x="390" y="-20" type="curve" smooth="yes"/>
      <point x="486" y="-20"/>
      <point x="550" y="44"/>
      <point x="550" y="140" type="curve" smooth="yes"/>
      <point x="550" y="236"/>
      <point x="486" y="300"/>
      <point x="390" y="300" type="curve" smooth="yes"/>
      <point x="294" y="300"/>
      <point x="230" y="236"/>
      <point x="230" y="140" type="curve" smooth="yes"/>
      <point x="230" y="44"/>
      <point x="294" y="-20"/>
    </contour>
  </outline>
</glyph>
<glyph name="E" format="1">
  <advance width="1240"/>
  <unicode hex="0045"/>
  <outline>
    <contour>
      <point x="120" y="0" type="line" name="ab01"/>
      <point x="1130" y="0" type="line"/>
      <point x="1130" y="42" type="line" name="sv01"/>
      <point x="516" y="42" type="line" name="dh01"/>
      <point x="516" y="736" type="line" name="dv01"/>
      <point x="1080" y="736" type="line"/>
      <point x="1080" y="778" type="line"/>
      <point x="516" y="778" type="line" name="dv02"/>
      <point x="516" y="1458" type="line" name="sv02"/>
      <point x="1120" y="1458" type="line"/>
      <point x="1120" y="1500" type="line" name="at01"/>
      <point x="120" y="1500" type="line"/>
    </contour>
  </outline>
</glyph>
<glyph name="L" format="1">
  <advance width="1180"/>
  <unicode hex="004C"/>
  <outline>
    <contour>
      <point x="1140" y="0" type="line"/>
      <point x="1140" y="42" type="line"/>
      <point x="516" y="42" type="line"/>
      <point x="516" y="1500" type="line"/>
      <point x="120" y="1500" type="line"/>
      <point x="120" y="0" type="line"/>
    </contour>
  </outline>
</glyph>
<glyph name="W" format="1">
  <advance width="2202"/>
  <unicode hex="0057"/>
  <outline>
    <contour>
      <point x="1588" y="0" type="line"/>
      <point x="2172" y="1500" type="line" name="n7"/>
      <point x="2129" y="1500" type="line" name="n0"/>
      <point x="1734" y="485" type="line"/>
      <point x="1338" y="1500" type="line" name="ab02"/>
      <point x="1246" y="1500" type="line" name="n0.1"/>
      <point x="851" y="485" type="line"/>
      <point x="456" y="1500" type="line" name="ab02.1"/>
      <point x="30" y="1500" type="line"/>
      <point x="616" y="0" type="line" name="at02"/>
      <point x="706" y="0" type="line"/>
      <point x="1102" y="1017" type="line"/>
      <point x="1499" y="0" type="line" name="at02.1"/>
    </contour>
  </outline>
</glyph>
<glyph name="f" format="1">
  <advance width="955"/>
  <unicode hex="0066"/>
  <outline>
    <contour>
      <point x="549" y="0" type="line"/>
      <point x="549" y="962" type="line"/>
      <point x="896" y="962" type="line"/>
      <point x="896" y="1000" type="line"/>
      <point x="549" y="1000" type="line"/>
      <point x="549" y="1201" type="line" smooth="yes"/>
      <point x="549" y="1356"/>
      <point x="626" y="1444"/>
      <point x="738" y="1444" type="curve" smooth="yes"/>
      <point x="790" y="1444"/>
      <point x="850" y="1424"/>
      <point x="919" y="1383" type="curve"/>
      <point x="940" y="1417" type="line"/>
      <point x="822" y="1495"/>
      <point x="702" y="1530"/>
      <point x="593" y="1530" type="curve" smooth="yes"/>
      <point x="364" y="1530"/>
      <point x="180" y="1373"/>
      <point x="180" y="1115" type="curve" smooth="yes"/>
      <point x="180" y="1000" type="line"/>
      <point x="5" y="1000" type="line"/>
      <point x="5" y="962" type="line"/>
      <point x="180" y="962" type="line"/>
      <point x="180" y="0" type="line"/>
    </contour>
  </outline>
</glyph>
<glyph name="g" format="1">
  <advance width="1326"/>
  <unicode hex="0067"/>
  <outline>
    <contour>
      <point x="519" y="-20" type="curve" smooth="yes" name="dv01"/>
      <point x="647" y="-20"/>
      <point x="757" y="33"/>
      <point x="837" y="122" type="curve"/>
      <point x="837" y="-88" type="line" smooth="yes"/>
      <point x="837" y="-318"/>
      <point x="708" y="-465"/>
      <point x="507" y="-465" type="curve" smooth="yes"/>
      <point x="397" y="-465"/>
      <point x="276" y="-421"/>
      <point x="147" y="-334" type="curve"/>
      <point x="125" y="-367" type="line"/>
      <point x="267" y="-467"/>
      <point x="433" y="-520"/>
      <point x="600" y="-520" type="curve" smooth="yes"/>
      <point x="966" y="-520"/>
      <point x="1206" y="-314"/>
      <point x="1206" y="2" type="curve" smooth="yes"/>
      <point x="1206" y="1000" type="line"/>
      <point x="883" y="1000" type="line"/>
      <point x="844" y="871" type="line"/>
      <point x="764" y="965"/>
      <point x="650" y="1020"/>
      <point x="519" y="1020" type="curve" smooth="yes" name="at01"/>
      <point x="259" y="1020"/>
      <point x="70" y="801"/>
      <point x="70" y="500" type="curve" smooth="yes" name="sh03"/>
      <point x="70" y="199"/>
      <point x="259" y="-20"/>
    </contour>
    <contour>
      <point x="689" y="86" type="curve" smooth="yes" name="dv02"/>
      <point x="548" y="86"/>
      <point x="448" y="258"/>
      <point x="448" y="496" type="curve" smooth="yes" name="ah01"/>
      <point x="448" y="737"/>
      <point x="551" y="913"/>
      <point x="689" y="913" type="curve" smooth="yes" name="sv01"/>
      <point x="746" y="913"/>
      <point x="797" y="883"/>
      <point x="837" y="831" type="curve"/>
      <point x="837" y="165" type="line"/>
      <point x="797" y="115"/>
      <point x="746" y="86"/>
    </contour>
  </outline>
</glyph>
<glyph name="l" format="1">
  <advance width="636"/>
  <unicode hex="006C"/>
  <outline>
    <contour>
      <point x="516" y="0" type="line"/>
      <point x="516" y="1540" type="line" name="av01"/>
      <point x="120" y="1540" type="line" name="dh01"/>
      <point x="120" y="0" type="line" name="ab01"/>
    </contour>
  </outline>
</glyph>
<glyph name="m" format="1">
  <advance width="1877"/>
  <unicode hex="006D"/>
  <outline>
    <contour>
      <point x="1777" y="0" type="line" name="ab02"/>
      <point x="1777" y="583" type="line" smooth="yes"/>
      <point x="1777" y="857"/>
      <point x="1646" y="1020"/>
      <point x="1425" y="1020" type="curve" smooth="yes" name="at02"/>
      <point x="1272" y="1020"/>
      <point x="1161" y="940"/>
      <point x="1102" y="791" type="curve"/>
      <point x="1051" y="938"/>
      <point x="942" y="1020"/>
      <point x="787" y="1020" type="curve" smooth="yes" name="at02"/>
      <point x="627" y="1020"/>
      <point x="510" y="933"/>
      <point x="457" y="781" type="curve"/>
      <point x="440" y="1000" type="line"/>
      <point x="120" y="1000" type="line" name="dh01"/>
      <point x="120" y="0" type="line" name="at01"/>
      <point x="489" y="0" type="line"/>
      <point x="489" y="656" type="line" smooth="yes"/>
      <point x="489" y="788"/>
      <point x="540" y="864"/>
      <point x="629" y="864" type="curve" smooth="yes" name="sv01"/>
      <point x="716" y="864"/>
      <point x="764" y="789"/>
      <point x="764" y="656" type="curve" smooth="yes"/>
      <point x="764" y="0" type="line" name="dh02"/>
      <point x="1133" y="0" type="line" name="ab02"/>
      <point x="1133" y="658" type="line" smooth="yes"/>
      <point x="1133" y="790"/>
      <point x="1184" y="866"/>
      <point x="1273" y="866" type="curve" smooth="yes" name="sv01"/>
      <point x="1360" y="866"/>
      <point x="1408" y="791"/>
      <point x="1408" y="658" type="curve" smooth="yes"/>
      <point x="1408" y="0" type="line" name="dh02"/>
    </contour>
  </outline>
</glyph>
<glyph name="y" format="1">
  <advance width="1147"/>
  <unicode hex="0079"/>
  <outline>
    <contour>
      <point x="453" y="-500" type="line"/>
      <point x="1117" y="1000" type="line"/>
      <point x="1077" y="1000" type="line"/>
      <point x="810" y="399" type="line"/>
      <point x="457" y="1000" type="line"/>
      <point x="30" y="1000" type="line"/>
      <point x="626" y="-16" type="line"/>
      <point x="412" y="-500" type="line"/>
    </contour>
  </outline>
</glyph>
<glyph name="yen" format="1">
  <advance width="1399"/>
  <unicode hex="00A5"/>
  <outline>
    <contour>
      <point x="932" y="0" type="line"/>
      <point x="932" y="367" type="line"/>
      <point x="1187" y="367" type="line"/>
      <point x="1187" y="405" type="line"/>
      <point x="932" y="405" type="line"/>
      <point x="932" y="653" type="line"/>
      <point x="1187" y="653" type="line"/>
      <point x="1187" y="690" type="line"/>
      <point x="932" y="690" type="line"/>
      <point x="1359" y="1500" type="line"/>
      <point x="1309" y="1500" type="line"/>
      <point x="922" y="765" type="line"/>
      <point x="481" y="1500" type="line"/>
      <point x="40" y="1500" type="line"/>
      <point x="536" y="690" type="line"/>
      <point x="280" y="690" type="line"/>
      <point x="280" y="653" type="line"/>
      <point x="536" y="653" type="line"/>
      <point x="536" y="405" type="line"/>
      <point x="280" y="405" type="line"/>
      <point x="280" y="367" type="line"/>
      <point x="536" y="367" type="line"/>
      <point x="536" y="0" type="line"/>
    </contour>
  </outline>
</glyph>
<glyph name="copyright" format="1">
  <advance width="1299"/>
  <unicode hex="00A9"/>
  <outline>
    <contour>
      <point x="650" y="-104" type="curve" smooth="yes"/>
      <point x="1002" y="-104"/>
      <point x="1259" y="149"/>
      <point x="1259" y="495" type="curve" smooth="yes"/>
      <point x="1259" y="840"/>
      <point x="1002" y="1093"/>
      <point x="650" y="1093" type="curve" smooth="yes"/>
      <point x="297" y="1093"/>
      <point x="40" y="840"/>
      <point x="40" y="495" type="curve" smooth="yes"/>
      <point x="40" y="149"/>
      <point x="297" y="-104"/>
    </contour>
    <contour>
      <point x="650" y="-65" type="curve" smooth="yes"/>
      <point x="322" y="-65"/>
      <point x="82" y="171"/>
      <point x="82" y="493" type="curve" smooth="yes"/>
      <point x="82" y="817"/>
      <point x="324" y="1055"/>
      <point x="650" y="1055" type="curve" smooth="yes"/>
      <point x="975" y="1055"/>
      <point x="1217" y="816"/>
      <point x="1217" y="493" type="curve" smooth="yes"/>
      <point x="1217" y="172"/>
      <point x="977" y="-65"/>
    </contour>
    <contour>
      <point x="918" y="265" type="curve"/>
      <point x="890" y="293" type="line"/>
      <point x="842" y="249"/>
      <point x="777" y="222"/>
      <point x="719" y="222" type="curve" smooth="yes"/>
      <point x="602" y="222"/>
      <point x="530" y="327"/>
      <point x="530" y="495" type="curve" smooth="yes"/>
      <point x="530" y="662"/>
      <point x="603" y="767"/>
      <point x="719" y="767" type="curve" smooth="yes"/>
      <point x="780" y="767"/>
      <point x="850" y="738"/>
      <point x="890" y="696" type="curve"/>
      <point x="918" y="724" type="line"/>
      <point x="846" y="783"/>
      <point x="757" y="815"/>
      <point x="664" y="815" type="curve" smooth="yes"/>
      <point x="471" y="815"/>
      <point x="330" y="680"/>
      <point x="330" y="495" type="curve" smooth="yes"/>
      <point x="330" y="310"/>
      <point x="471" y="174"/>
      <point x="664" y="174" type="curve" smooth="yes"/>
      <point x="757" y="174"/>
      <point x="847" y="206"/>
    </contour>
  </outline>
</glyph>
<glyph name="macron" format="1">
  <advance width="778"/>
  <unicode hex="00AF"/>
  <outline>
    <contour>
      <point x="738" y="1225" type="line"/>
      <point x="738" y="1430" type="line"/>
      <point x="40" y="1430" type="line"/>
      <point x="40" y="1225" type="line"/>
    </contour>
  </outline>
</glyph>
<glyph name="acute" format="1">
  <advance width="571"/>
  <unicode hex="00B4"/>
  <outline>
    <contour>
      <point x="321" y="1160" type="line" name="av01"/>
      <point x="521" y="1500" type="line" name="at01"/>
      <point x="192" y="1500" type="line"/>
      <point x="60" y="1160" type="line"/>
    </contour>
  </outline>
</glyph>
<glyph name="threequarters" format="1">
  <advance width="1635"/>
  <unicode hex="00BE"/>
  <outline>
    <contour>
      <point x="370" y="0" type="line" name="av01.1"/>
      <point x="1381" y="1540" type="line" name="at01.1"/>
      <point x="1339" y="1540" type="line"/>
      <point x="321" y="0" type="line"/>
    </contour>
    <contour>
      <point x="90" y="853" type="line"/>
      <point x="156" y="805"/>
      <point x="235" y="780"/>
      <point x="320" y="780" type="curve" smooth="yes"/>
      <point x="477" y="780"/>
      <point x="594" y="866"/>
      <point x="594" y="982" type="curve" smooth="yes"/>
      <point x="594" y="1074"/>
      <point x="519" y="1141"/>
      <point x="401" y="1162" type="curve"/>
      <point x="495" y="1187"/>
      <point x="559" y="1256"/>
      <point x="559" y="1341" type="curve" smooth="yes"/>
      <point x="559" y="1446"/>
      <point x="461" y="1520"/>
      <point x="321" y="1520" type="curve" smooth="yes"/>
      <point x="236" y="1520"/>
      <point x="161" y="1493"/>
      <point x="100" y="1444" type="curve"/>
      <point x="113" y="1429" type="line"/>
      <point x="148" y="1457"/>
      <point x="187" y="1471"/>
      <point x="228" y="1471" type="curve" smooth="yes"/>
      <point x="313" y="1471"/>
      <point x="372" y="1411"/>
      <point x="372" y="1325" type="curve" smooth="yes"/>
      <point x="372" y="1237"/>
      <point x="308" y="1169"/>
      <point x="225" y="1169" type="curve" smooth="yes"/>
      <point x="195" y="1169" type="line"/>
      <point x="195" y="1149" type="line"/>
      <point x="225" y="1149" type="line" smooth="yes"/>
      <point x="326" y="1149"/>
      <point x="393" y="1087"/>
      <point x="393" y="995" type="curve" smooth="yes"/>
      <point x="393" y="900"/>
      <point x="321" y="829"/>
      <point x="221" y="829" type="curve" smooth="yes"/>
      <point x="177" y="829"/>
      <point x="136" y="842"/>
      <point x="101" y="870" type="curve"/>
    </contour>
    <contour>
      <point x="1457" y="0" type="line"/>
      <point x="1457" y="152" type="line"/>
      <point x="1545" y="152" type="line"/>
      <point x="1545" y="190" type="line"/>
      <point x="1457" y="190" type="line"/>
      <point x="1457" y="720" type="line"/>
      <point x="1393" y="720" type="line"/>
      <point x="959" y="190" type="line"/>
      <point x="959" y="151" type="line"/>
      <point x="1267" y="151" type="line"/>
      <point x="1267" y="0" type="line"/>
    </contour>
    <contour>
      <point x="1008" y="190" type="line"/>
      <point x="1267" y="506" type="line"/>
      <point x="1267" y="190" type="line"/>
    </contour>
  </outline>
</glyph>
<glyph name="Aacute" format="1">
  <advance width="1451"/>
  <unicode hex="00C1"/>
  <outline>
    <contour>
      <point x="856" y="1660" type="line" name="av01"/>
      <point x="1056" y="2000" type="line" name="at01"/>
      <point x="727" y="2000" type="line"/>
      <point x="595" y="1660" type="line"/>
    </contour>
    <contour>
      <point x="78" y="0" type="line" name="n0"/>
      <point x="279" y="468" type="line" name="dv01"/>
      <point x="788" y="468" type="line"/>
      <point x="990" y="0" type="line" name="ab02"/>
      <point x="1421" y="0" type="line"/>
      <point x="774" y="1500" type="line" name="at02"/>
      <point x="675" y="1500" type="line"/>
      <point x="30" y="0" type="line" name="n7"/>
    </contour>
    <contour>
      <point x="297" y="510" type="line" name="dv02"/>
      <point x="533" y="1059" type="line"/>
      <point x="770" y="510" type="line"/>
    </contour>
  </outline>
</glyph>
<glyph name="Atilde" format="1">
  <advance width="1451"/>
  <unicode hex="00C3"/>
  <outline>
    <contour>
      <point x="1128" y="1981" type="curve"/>
      <point x="1000" y="1981" type="line"/>
      <point x="996" y="1905"/>
      <point x="960" y="1865"/>
      <point x="898" y="1865" type="curve" smooth="yes"/>
      <point x="849" y="1865"/>
      <point x="812" y="1890"/>
      <point x="770" y="1917" type="curve" smooth="yes"/>
      <point x="717" y="1951"/>
      <point x="659" y="1990"/>
      <point x="561" y="1990" type="curve" smooth="yes" name="av01"/>
      <point x="404" y="1990"/>
      <point x="323" y="1889"/>
      <point x="323" y="1696" type="curve"/>
      <point x="451" y="1696" type="line"/>
      <point x="455" y="1771"/>
      <point x="497" y="1813"/>
      <point x="566" y="1813" type="curve" smooth="yes"/>
      <point x="620" y="1813"/>
      <point x="658" y="1787"/>
      <point x="699" y="1759" type="curve" smooth="yes"/>
      <point x="748" y="1725"/>
      <point x="802" y="1688"/>
      <point x="896" y="1688" type="curve" smooth="yes" name="av02"/>
      <point x="1050" y="1688"/>
      <point x="1128" y="1787"/>
    </contour>
    <contour>
      <point x="78" y="0" type="line" name="n0"/>
      <point x="279" y="468" type="line" name="dv01"/>
      <point x="788" y="468" type="line"/>
      <point x="990" y="0" type="line" name="ab02"/>
      <point x="1421" y="0" type="line"/>
      <point x="774" y="1500" type="line" name="at02"/>
      <point x="675" y="1500" type="line"/>
      <point x="30" y="0" type="line" name="n7"/>
    </contour>
    <contour>
      <point x="297" y="510" type="line" name="dv02"/>
      <point x="533" y="1059" type="line"/>
      <point x="770" y="510" type="line"/>
    </contour>
  </outline>
</glyph>
<glyph name="Aring" format="1">
  <advance width="1451"/>
  <unicode hex="00C5"/>
  <outline>
    <contour>
      <point x="725" y="1570" type="curve" smooth="yes"/>
      <point x="863" y="1570"/>
      <point x="955" y="1658"/>
      <point x="955" y="1790" type="curve" smooth="yes"/>
      <point x="955" y="1922"/>
      <point x="863" y="2010"/>
      <point x="725" y="2010" type="curve" smooth="yes"/>
      <point x="587" y="2010"/>
      <point x="495" y="1922"/>
      <point x="495" y="1790" type="curve" smooth="yes"/>
      <point x="495" y="1658"/>
      <point x="587" y="1570"/>
    </contour>
    <contour>
      <point x="725" y="1710" type="curve" smooth="yes"/>
      <point x="677" y="1710"/>
      <point x="646" y="1742"/>
      <point x="646" y="1790" type="curve" smooth="yes"/>
      <point x="646" y="1838"/>
      <point x="677" y="1870"/>
      <point x="725" y="1870" type="curve" smooth="yes"/>
      <point x="773" y="1870"/>
      <point x="805" y="1838"/>
      <point x="805" y="1790" type="curve" smooth="yes"/>
      <point x="805" y="1742"/>
      <point x="773" y="1710"/>
    </contour>
    <contour>
      <point x="78" y="0" type="line" name="n0"/>
      <point x="279" y="468" type="line" name="dv01"/>
      <point x="788" y="468" type="line"/>
      <point x="990" y="0" type="line" name="ab02"/>
      <point x="1421" y="0" type="line"/>
      <point x="774" y="1500" type="line" name="at02"/>
      <point x="675" y="1500" type="line"/>
      <point x="30" y="0" type="line" name="n7"/>
    </contour>
    <contour>
      <point x="297" y="510" type="line" name="dv02"/>
      <point x="533" y="1059" type="line"/>
      <point x="770" y="510" type="line"/>
    </contour>
  </outline>
</glyph>
<glyph name="Ccedilla" format="1">
  <advance width="1494"/>
  <unicode hex="00C7"/>
  <outline>
    <contour>
      <point x="1424" y="191" type="curve"/>
      <point x="1394" y="221" type="line"/>
      <point x="1278" y="103"/>
      <point x="1114" y="31"/>
      <point x="963" y="31" type="curve" smooth="yes" name="ih01"/>
      <point x="666" y="31"/>
      <point x="475" y="314"/>
      <point x="475" y="752" type="curve" smooth="yes" name="sh02"/>
      <point x="475" y="1187"/>
      <point x="667" y="1469"/>
      <point x="963" y="1469" type="curve" smooth="yes" name="sv01.1"/>
      <point x="1114" y="1469"/>
      <point x="1278" y="1397"/>
      <point x="1394" y="1279" type="curve"/>
      <point x="1424" y="1309" type="line"/>
      <point x="1278" y="1452"/>
      <point x="1079" y="1530"/>
      <point x="860" y="1530" type="curve" smooth="yes" name="at01"/>
      <point x="407" y="1530"/>
      <point x="70" y="1197"/>
      <point x="70" y="750" type="curve" smooth="yes" name="sh01"/>
      <point x="70" y="320"/>
      <point x="382" y="-5"/>
      <point x="809" y="-29" type="curve"/>
      <point x="768" y="-135" type="line"/>
      <point x="781" y="-133"/>
      <point x="793" y="-132"/>
      <point x="804" y="-132" type="curve" smooth="yes"/>
      <point x="872" y="-132"/>
      <point x="890" y="-164"/>
      <point x="890" y="-200" type="curve" smooth="yes"/>
      <point x="890" y="-251"/>
      <point x="855" y="-282"/>
      <point x="805" y="-282" type="curve" smooth="yes"/>
      <point x="781" y="-282"/>
      <point x="756" y="-276"/>
      <point x="732" y="-263" type="curve"/>
      <point x="684" y="-395" type="line"/>
      <point x="735" y="-419"/>
      <point x="789" y="-432"/>
      <point x="840" y="-432" type="curve" smooth="yes"/>
      <point x="965" y="-432"/>
      <point x="1057" y="-357"/>
      <point x="1057" y="-255" type="curve" smooth="yes"/>
      <point x="1057" y="-170"/>
      <point x="994" y="-113"/>
      <point x="894" y="-102" type="curve"/>
      <point x="929" y="-27" type="line"/>
      <point x="1121" y="-12"/>
      <point x="1293" y="63"/>
    </contour>
  </outline>
</glyph>
<glyph name="Oslash" format="1">
  <advance width="1730"/>
  <unicode hex="00D8"/>
  <outline>
    <contour>
      <point x="561" y="-50" type="line" name="av01"/>
      <point x="587" y="14" type="line"/>
      <point x="671" y="-14"/>
      <point x="763" y="-30"/>
      <point x="860" y="-30" type="curve" smooth="yes" name="dv01"/>
      <point x="1313" y="-30"/>
      <point x="1660" y="303"/>
      <point x="1660" y="750" type="curve" smooth="yes" name="sh03"/>
      <point x="1660" y="1080"/>
      <point x="1471" y="1349"/>
      <point x="1189" y="1466" type="curve"/>
      <point x="1218" y="1535" type="line" name="at01"/>
      <point x="1181" y="1550" type="line"/>
      <point x="1152" y="1480" type="line"/>
      <point x="1062" y="1512"/>
      <point x="964" y="1530"/>
      <point x="860" y="1530" type="curve" smooth="yes" name="at01.1"/>
      <point x="407" y="1530"/>
      <point x="70" y="1197"/>
      <point x="70" y="750" type="curve" smooth="yes" name="sh01"/>
      <point x="70" y="413"/>
      <point x="261" y="141"/>
      <point x="549" y="27" type="curve"/>
      <point x="524" y="-35" type="line"/>
    </contour>
    <contour>
      <point x="610" y="175" type="line"/>
      <point x="526" y="307"/>
      <point x="475" y="511"/>
      <point x="475" y="752" type="curve" smooth="yes" name="sh02"/>
      <point x="475" y="1181"/>
      <point x="636" y="1488"/>
      <point x="860" y="1488" type="curve" smooth="yes" name="sv01"/>
      <point x="950" y="1488"/>
      <point x="1033" y="1438"/>
      <point x="1098" y="1350" type="curve"/>
    </contour>
    <contour>
      <point x="860" y="12" type="curve" smooth="yes" name="dv02"/>
      <point x="775" y="12"/>
      <point x="699" y="57"/>
      <point x="637" y="136" type="curve"/>
      <point x="1125" y="1310" type="line"/>
      <point x="1206" y="1179"/>
      <point x="1255" y="983"/>
      <point x="1255" y="752" type="curve" smooth="yes" name="ah01"/>
      <point x="1255" y="323"/>
      <point x="1084" y="12"/>
    </contour>
  </outline>
</glyph>
<glyph name="Yacute" format="1">
  <advance width="1497"/>
  <unicode hex="00DD"/>
  <outline>
    <contour>
      <point x="859" y="1660" type="line" name="av01"/>
      <point x="1059" y="2000" type="line" name="at01"/>
      <point x="730" y="2000" type="line"/>
      <point x="598" y="1660" type="line"/>
    </contour>
    <contour>
      <point x="984" y="0" type="line"/>
      <point x="984" y="757" type="line"/>
      <point x="1467" y="1500" type="line"/>
      <point x="1415" y="1500" type="line"/>
      <point x="959" y="797" type="line"/>
      <point x="502" y="1500" type="line"/>
      <point x="30" y="1500" type="line"/>
      <point x="588" y="641" type="line"/>
      <point x="588" y="0" type="line"/>
    </contour>
  </outline>
</glyph>
<glyph name="atilde" format="1">
  <advance width="1169"/>
  <unicode hex="00E3"/>
  <outline>
    <contour>
      <point x="987" y="1481" type="curve"/>
      <point x="859" y="1481" type="line"/>
      <point x="855" y="1405"/>
      <point x="819" y="1365"/>
      <point x="757" y="1365" type="curve" smooth="yes"/>
      <point x="708" y="1365"/>
      <point x="670" y="1389"/>
      <point x="627" y="1418" type="curve" smooth="yes"/>
      <point x="576" y="1452"/>
      <point x="517" y="1490"/>
      <point x="419" y="1490" type="curve" smooth="yes" name="av01"/>
      <point x="262" y="1490"/>
      <point x="182" y="1389"/>
      <point x="182" y="1196" type="curve"/>
      <point x="310" y="1196" type="line"/>
      <point x="314" y="1271"/>
      <point x="355" y="1313"/>
      <point x="424" y="1313" type="curve" smooth="yes"/>
      <point x="478" y="1313"/>
      <point x="517" y="1288"/>
      <point x="559" y="1258" type="curve" smooth="yes"/>
      <point x="606" y="1224"/>
      <point x="661" y="1188"/>
      <point x="755" y="1188" type="curve" smooth="yes" name="av02"/>
      <point x="909" y="1188"/>
      <point x="987" y="1287"/>
    </contour>
    <contour>
      <point x="1069" y="0" type="line" name="n0.1"/>
      <point x="1069" y="531" type="line" smooth="yes" name="n1.1"/>
      <point x="1069" y="835"/>
      <point x="875" y="1020"/>
      <point x="558" y="1020" type="curve" smooth="yes"/>
      <point x="413" y="1020"/>
      <point x="252" y="982"/>
      <point x="150" y="924" type="curve" name="n7.1"/>
      <point x="167" y="890" type="line" name="n8.1"/>
      <point x="258" y="932"/>
      <point x="341" y="953"/>
      <point x="413" y="953" type="curve" smooth="yes"/>
      <point x="593" y="953"/>
      <point x="700" y="822"/>
      <point x="700" y="601" type="curve" smooth="yes" name="n14"/>
      <point x="700" y="589" type="line"/>
      <point x="625" y="621"/>
      <point x="545" y="637"/>
      <point x="463" y="637" type="curve" smooth="yes" name="n17"/>
      <point x="230" y="637" name="n18"/>
      <point x="70" y="503" name="n19"/>
      <point x="70" y="306" type="curve" smooth="yes" name="n20"/>
      <point x="70" y="116"/>
      <point x="217" y="-20"/>
      <point x="421" y="-20" type="curve" smooth="yes"/>
      <point x="534" y="-20"/>
      <point x="636" y="22"/>
      <point x="709" y="93" type="curve"/>
      <point x="746" y="0" type="line" name="n16.1"/>
    </contour>
    <contour>
      <point x="584" y="85" type="curve" smooth="yes"/>
      <point x="475" y="85"/>
      <point x="394" y="187"/>
      <point x="394" y="325" type="curve" smooth="yes"/>
      <point x="394" y="471"/>
      <point x="482" y="572"/>
      <point x="609" y="572" type="curve" smooth="yes"/>
      <point x="640" y="572"/>
      <point x="671" y="565"/>
      <point x="700" y="554" type="curve"/>
      <point x="700" y="157" type="line" smooth="yes" name="n15.1"/>
      <point x="700" y="118"/>
      <point x="647" y="85"/>
    </contour>
  </outline>
</glyph>
<glyph name="eth" format="1">
  <advance width="1221"/>
  <unicode hex="00F0"/>
  <outline>
    <contour>
      <point x="967" y="1362" type="line"/>
      <point x="949" y="1399" type="line"/>
      <point x="763" y="1318" type="line"/>
      <point x="632" y="1404.83"/>
      <point x="473" y="1467"/>
      <point x="297" y="1500" type="curve"/>
      <point x="284" y="1461" type="line"/>
      <point x="418" y="1416"/>
      <point x="523" y="1346.82"/>
      <point x="602" y="1248" type="curve"/>
      <point x="287" y="1111" type="line" name="dv04"/>
      <point x="304" y="1073" type="line" name="dv03"/>
      <point x="628" y="1214" type="line"/>
      <point x="706" y="1101"/>
      <point x="753" y="952"/>
      <point x="776" y="762" type="curve"/>
      <point x="718" y="876"/>
      <point x="617" y="930"/>
      <point x="477" y="930" type="curve" smooth="yes"/>
      <point x="243" y="930"/>
      <point x="70" y="736"/>
      <point x="70" y="475" type="curve" smooth="yes"/>
      <point x="70" y="176"/>
      <point x="293" y="-30"/>
      <point x="623" y="-30" type="curve" smooth="yes"/>
      <point x="969" y="-30"/>
      <point x="1181" y="198"/>
      <point x="1181" y="577" type="curve" smooth="yes"/>
      <point x="1181" y="862"/>
      <point x="1039" y="1116"/>
      <point x="802" y="1290" type="curve"/>
    </contour>
    <contour>
      <point x="632" y="12" type="curve" smooth="yes"/>
      <point x="554" y="12"/>
      <point x="476" y="155"/>
      <point x="476" y="430" type="curve" smooth="yes"/>
      <point x="476" y="699"/>
      <point x="550" y="828"/>
      <point x="626" y="828" type="curve" smooth="yes"/>
      <point x="704" y="828"/>
      <point x="783" y="692"/>
      <point x="783" y="417" type="curve" smooth="yes"/>
      <point x="783" y="148"/>
      <point x="708" y="12"/>
    </contour>
  </outline>
</glyph>
<glyph name="oacute" format="1">
  <advance width="1227"/>
  <unicode hex="00F3"/>
  <outline>
    <contour>
      <point x="724" y="1160" type="line" name="av01"/>
      <point x="924" y="1500" type="line" name="at01.1"/>
      <point x="595" y="1500" type="line"/>
      <point x="463" y="1160" type="line"/>
    </contour>
    <contour>
      <point x="614" y="-20" type="curve" smooth="yes" name="dv01"/>
      <point x="932" y="-20"/>
      <point x="1157" y="195"/>
      <point x="1157" y="500" type="curve" smooth="yes" name="sh03"/>
      <point x="1157" y="800"/>
      <point x="927" y="1020"/>
      <point x="614" y="1020" type="curve" smooth="yes" name="at01"/>
      <point x="300" y="1020"/>
      <point x="70" y="800"/>
      <point x="70" y="500" type="curve" smooth="yes" name="sh01"/>
      <point x="70" y="200"/>
      <point x="300" y="-20"/>
    </contour>
    <contour>
      <point x="614" y="18" type="curve" smooth="yes" name="dv02"/>
      <point x="507" y="18"/>
      <point x="448" y="190"/>
      <point x="448" y="500" type="curve" smooth="yes" name="sh02"/>
      <point x="448" y="810"/>
      <point x="507" y="982"/>
      <point x="614" y="982" type="curve" smooth="yes" name="sv01"/>
      <point x="721" y="982"/>
      <point x="780" y="810"/>
      <point x="780" y="500" type="curve" smooth="yes" name="ah01"/>
      <point x="780" y="190"/>
      <point x="721" y="18"/>
    </contour>
  </outline>
</glyph>
<glyph name="yacute" format="1">
  <advance width="1148"/>
  <unicode hex="00FD"/>
  <outline>
    <contour>
      <point x="736" y="1160" type="line" name="av01"/>
      <point x="936" y="1500" type="line" name="at01"/>
      <point x="607" y="1500" type="line"/>
      <point x="475" y="1160" type="line"/>
    </contour>
    <contour>
      <point x="452" y="-500" type="line"/>
      <point x="1118" y="1000" type="line"/>
      <point x="1077" y="1000" type="line"/>
      <point x="810" y="399" type="line"/>
      <point x="458" y="1000" type="line"/>
      <point x="30" y="1000" type="line"/>
      <point x="626" y="-16" type="line"/>
      <point x="412" y="-500" type="line"/>
    </contour>
  </outline>
</glyph>
<glyph name="thorn" format="1">
  <advance width="1296"/>
  <unicode hex="00FE"/>
  <outline>
    <contour>
      <point x="489" y="-500" type="line"/>
      <point x="489" y="122" type="line"/>
      <point x="569" y="33"/>
      <point x="679" y="-20"/>
      <point x="807" y="-20" type="curve" smooth="yes" name="at01"/>
      <point x="1068" y="-20"/>
      <point x="1256" y="200"/>
      <point x="1256" y="500" type="curve" smooth="yes" name="sh03"/>
      <point x="1256" y="800"/>
      <point x="1068" y="1020"/>
      <point x="807" y="1020" type="curve" smooth="yes" name="dv01"/>
      <point x="679" y="1020"/>
      <point x="569" y="967"/>
      <point x="489" y="878" type="curve"/>
      <point x="489" y="1500" type="line"/>
      <point x="120" y="1500" type="line" name="dh01"/>
      <point x="120" y="-500" type="line" name="at01"/>
    </contour>
    <contour>
      <point x="637" y="87" type="curve" smooth="yes" name="sv01"/>
      <point x="580" y="87"/>
      <point x="529" y="117"/>
      <point x="489" y="169" type="curve"/>
      <point x="489" y="834" type="line"/>
      <point x="529" y="885"/>
      <point x="580" y="914"/>
      <point x="637" y="914" type="curve" smooth="yes" name="dv02"/>
      <point x="776" y="914"/>
      <point x="878" y="742"/>
      <point x="878" y="503" type="curve" smooth="yes" name="ah01"/>
      <point x="878" y="264"/>
      <point x="776" y="87"/>
    </contour>
  </outline>
</glyph>
<glyph name="Itilde" format="1">
  <advance width="636"/>
  <unicode hex="0128"/>
  <outline>
    <contour>
      <point x="721" y="1981" type="line"/>
      <point x="721" y="1787"/>
      <point x="643" y="1688"/>
      <point x="489" y="1688" type="curve" smooth="yes" name="av02"/>
      <point x="395" y="1688"/>
      <point x="340" y="1725"/>
      <point x="291" y="1759" type="curve" smooth="yes"/>
      <point x="250" y="1787"/>
      <point x="212" y="1813"/>
      <point x="158" y="1813" type="curve" smooth="yes"/>
      <point x="89" y="1813"/>
      <point x="48" y="1771"/>
      <point x="44" y="1696" type="curve"/>
      <point x="-84" y="1696" type="line"/>
      <point x="-84" y="1889"/>
      <point x="-4" y="1990"/>
      <point x="153" y="1990" type="curve" smooth="yes" name="av01"/>
      <point x="251" y="1990"/>
      <point x="310" y="1951"/>
      <point x="363" y="1917" type="curve" smooth="yes"/>
      <point x="405" y="1890"/>
      <point x="442" y="1865"/>
      <point x="491" y="1865" type="curve" smooth="yes"/>
      <point x="553" y="1865"/>
      <point x="589" y="1905"/>
      <point x="593" y="1981" type="curve"/>
    </contour>
    <contour>
      <point x="516" y="1500" type="line" name="at01"/>
      <point x="516" y="0" type="line" name="ab01"/>
      <point x="120" y="0" type="line" name="dh01"/>
      <point x="120" y="1500" type="line"/>
    </contour>
  </outline>
</glyph>
<glyph name="Jcircumflex" format="1">
  <advance width="613"/>
  <unicode hex="0134"/>
  <outline>
    <contour>
      <point x="661" y="1660" type="line"/>
      <point x="436" y="2000" type="line" name="at01"/>
      <point x="143" y="2000" type="line" name="at01.1"/>
      <point x="-82" y="1660" type="line"/>
      <point x="188" y="1660" type="line" name="av01"/>
      <point x="289" y="1851" type="line"/>
      <point x="390" y="1660" type="line" name="av01.1"/>
    </contour>
    <contour>
      <point x="-188" y="-360" type="line"/>
      <point x="306" y="-360"/>
      <point x="493" y="-222"/>
      <point x="493" y="142" type="curve" smooth="yes"/>
      <point x="493" y="1500" type="line"/>
      <point x="97" y="1500" type="line"/>
      <point x="97" y="142" type="line" smooth="yes"/>
      <point x="97" y="-165"/>
      <point x="1" y="-318"/>
      <point x="-190" y="-318" type="curve"/>
    </contour>
  </outline>
</glyph>
<glyph name="jcircumflex" format="1">
  <advance width="580"/>
  <unicode hex="0135"/>
  <outline>
    <contour>
      <point x="640" y="1160" type="line"/>
      <point x="415" y="1500" type="line" name="at01"/>
      <point x="122" y="1500" type="line" name="at01.1"/>
      <point x="-103" y="1160" type="line"/>
      <point x="167" y="1160" type="line" name="av01"/>
      <point x="268" y="1351" type="line"/>
      <point x="369" y="1160" type="line" name="av01.1"/>
    </contour>
    <contour>
      <point x="-184" y="-497" type="line"/>
      <point x="-115" y="-513"/>
      <point x="-50" y="-520"/>
      <point x="13" y="-520" type="curve" smooth="yes"/>
      <point x="300" y="-520"/>
      <point x="459" y="-361"/>
      <point x="459" y="-69" type="curve" smooth="yes"/>
      <point x="459" y="1000" type="line"/>
      <point x="90" y="1000" type="line"/>
      <point x="90" y="-197" type="line" smooth="yes"/>
      <point x="90" y="-367"/>
      <point x="11" y="-463"/>
      <point x="-127" y="-463" type="curve" smooth="yes"/>
      <point x="-144" y="-463"/>
      <point x="-161" y="-462"/>
      <point x="-178" y="-459" type="curve"/>
    </contour>
  </outline>
</glyph>
<glyph name="uni0137" format="1">
  <advance width="1283"/>
  <unicode hex="0137"/>
  <outline>
    <contour>
      <point x="489" y="0" type="line"/>
      <point x="489" y="304" type="line"/>
      <point x="536" y="356" type="line"/>
      <point x="820" y="0" type="line"/>
      <point x="1253" y="0" type="line"/>
      <point x="759" y="607" type="line"/>
      <point x="1109" y="1000" type="line"/>
      <point x="1058" y="1000" type="line"/>
      <point x="522" y="396" type="line"/>
      <point x="489" y="359" type="line"/>
      <point x="489" y="1500" type="line"/>
      <point x="120" y="1500" type="line"/>
      <point x="120" y="0" type="line"/>
    </contour>
    <contour>
      <point x="550" y="-548" type="line"/>
      <point x="674" y="-484"/>
      <point x="752" y="-345"/>
      <point x="752" y="-190" type="curve" smooth="yes"/>
      <point x="752" y="-139"/>
      <point x="743" y="-86"/>
      <point x="725" y="-35" type="curve"/>
      <point x="453" y="-90" type="line"/>
      <point x="486" y="-135"/>
      <point x="502" y="-191"/>
      <point x="502" y="-247" type="curve" smooth="yes"/>
      <point x="502" y="-320"/>
      <point x="475" y="-392"/>
      <point x="422" y="-437" type="curve"/>
    </contour>
  </outline>
</glyph>
<glyph name="lacute" format="1">
  <advance width="636"/>
  <unicode hex="013A"/>
  <outline>
    <contour>
      <point x="451" y="1660" type="line" name="av01.1"/>
      <point x="651" y="2000" type="line" name="at01"/>
      <point x="322" y="2000" type="line"/>
      <point x="190" y="1660" type="line"/>
    </contour>
    <contour>
      <point x="516" y="0" type="line"/>
      <point x="516" y="1540" type="line" name="av01"/>
      <point x="120" y="1540" type="line" name="dh01"/>
      <point x="120" y="0" type="line" name="ab01"/>
    </contour>
  </outline>
</glyph>
<glyph name="uni013C" format="1">
  <advance width="636"/>
  <unicode hex="013C"/>
  <outline>
    <contour>
      <point x="516" y="0" type="line"/>
      <point x="516" y="1540" type="line" name="av01"/>
      <point x="120" y="1540" type="line" name="dh01"/>
      <point x="120" y="0" type="line" name="ab01"/>
    </contour>
    <contour>
      <point x="281" y="-548" type="line"/>
      <point x="405" y="-484"/>
      <point x="483" y="-345"/>
      <point x="483" y="-190" type="curve" smooth="yes"/>
      <point x="483" y="-139"/>
      <point x="474" y="-86"/>
      <point x="456" y="-35" type="curve"/>
      <point x="184" y="-90" type="line"/>
      <point x="217" y="-135"/>
      <point x="233" y="-191"/>
      <point x="233" y="-247" type="curve" smooth="yes"/>
      <point x="233" y="-320"/>
      <point x="206" y="-392"/>
      <point x="153" y="-437" type="curve"/>
    </contour>
  </outline>
</glyph>
<glyph name="lslash" format="1">
  <advance width="637"/>
  <unicode hex="0142"/>
  <outline>
    <contour>
      <point x="-69" y="522" type="line"/>
      <point x="121" y="631" type="line"/>
      <point x="121" y="0" type="line" name="ab01"/>
      <point x="516" y="0" type="line"/>
      <point x="516" y="860" type="line"/>
      <point x="726" y="980" type="line" name="dv01"/>
      <point x="706" y="1018" type="line" name="dv02"/>
      <point x="516" y="909" type="line"/>
      <point x="516" y="1540" type="line" name="av01"/>
      <point x="121" y="1540" type="line" name="dh01"/>
      <point x="121" y="680" type="line"/>
      <point x="-89" y="560" type="line"/>
    </contour>
  </outline>
</glyph>
<glyph name="Ncaron" format="1">
  <advance width="1479"/>
  <unicode hex="0147"/>
  <outline>
    <contour>
      <point x="886" y="1660" type="line" name="at01"/>
      <point x="1111" y="2000" type="line"/>
      <point x="841" y="2000" type="line" name="av01"/>
      <point x="740" y="1809" type="line"/>
      <point x="639" y="2000" type="line" name="av01.1"/>
      <point x="368" y="2000" type="line"/>
      <point x="593" y="1660" type="line" name="at01.1"/>
    </contour>
    <contour>
      <point x="1359" y="0" type="line"/>
      <point x="1359" y="1500" type="line"/>
      <point x="1315" y="1500" type="line"/>
      <point x="1315" y="520" type="line"/>
      <point x="164" y="1500" type="line"/>
      <point x="120" y="1500" type="line"/>
      <point x="120" y="0" type="line"/>
      <point x="164" y="0" type="line"/>
      <point x="164" y="980" type="line"/>
      <point x="1315" y="0" type="line"/>
    </contour>
  </outline>
</glyph>
<glyph name="Eng" format="1">
  <advance width="1479"/>
  <unicode hex="014A"/>
  <outline>
    <contour>
      <point x="938" y="-360" type="line"/>
      <point x="1198.94" y="-360"/>
      <point x="1339.12" y="-241.828"/>
      <point x="1359" y="0" type="curve"/>
      <point x="1359" y="1500" type="line"/>
      <point x="1315" y="1500" type="line"/>
      <point x="1315" y="613.548" type="line"/>
      <point x="1317.48" y="519.188" type="line"/>
      <point x="1313.54" y="518.399" type="line"/>
      <point x="1211.94" y="604.902"/>
      <point x="1156.09" y="655.3"/>
      <point x="1054.49" y="741.803" type="curve" smooth="yes"/>
      <point x="164" y="1500" type="line"/>
      <point x="120" y="1500" type="line"/>
      <point x="120" y="0" type="line"/>
      <point x="164" y="0" type="line"/>
      <point x="164" y="935.797" type="line"/>
      <point x="162.543" y="985.384" type="line"/>
      <point x="165.304" y="986.621" type="line"/>
      <point x="493.501" y="699.451" type="line"/>
      <point x="962.628" y="300.021" type="line" smooth="yes"/>
      <point x="1099.31" y="183.647"/>
      <point x="1176.41" y="118"/>
      <point x="1313.09" y="1.6258" type="curve"/>
      <point x="1296.43" y="-209.032"/>
      <point x="1169.54" y="-318"/>
      <point x="938" y="-318" type="curve"/>
    </contour>
  </outline>
</glyph>
<glyph name="Omacron" format="1">
  <advance width="1730"/>
  <unicode hex="014C"/>
  <outline>
    <contour>
      <point x="1214" y="1725" type="line"/>
      <point x="1214" y="1930" type="line"/>
      <point x="516" y="1930" type="line"/>
      <point x="516" y="1725" type="line"/>
    </contour>
    <contour>
      <point x="860" y="-30" type="curve" smooth="yes" name="dv01"/>
      <point x="1313" y="-30"/>
      <point x="1660" y="303"/>
      <point x="1660" y="750" type="curve" smooth="yes" name="sh03"/>
      <point x="1660" y="1197"/>
      <point x="1313" y="1530"/>
      <point x="860" y="1530" type="curve" smooth="yes" name="at01"/>
      <point x="407" y="1530"/>
      <point x="70" y="1197"/>
      <point x="70" y="750" type="curve" smooth="yes" name="sh01"/>
      <point x="70" y="303"/>
      <point x="407" y="-30"/>
    </contour>
    <contour>
      <point x="860" y="12" type="curve" smooth="yes" name="dv02"/>
      <point x="636" y="12"/>
      <point x="475" y="323"/>
      <point x="475" y="752" type="curve" smooth="yes" name="sh02"/>
      <point x="475" y="1181"/>
      <point x="636" y="1488"/>
      <point x="860" y="1488" type="curve" smooth="yes" name="sv01"/>
      <point x="1084" y="1488"/>
      <point x="1255" y="1181"/>
      <point x="1255" y="752" type="curve" smooth="yes" name="ah01"/>
      <point x="1255" y="323"/>
      <point x="1084" y="12"/>
    </contour>
  </outline>
</glyph>
<glyph name="Scedilla" format="1">
  <advance width="1292"/>
  <unicode hex="015E"/>
  <outline>
    <contour>
      <point x="50" y="172" type="line"/>
      <point x="204" y="52"/>
      <point x="386" y="-16"/>
      <point x="579" y="-28" type="curve"/>
      <point x="538" y="-135" type="line"/>
      <point x="551" y="-133"/>
      <point x="563" y="-132"/>
      <point x="574" y="-132" type="curve" smooth="yes"/>
      <point x="642" y="-132"/>
      <point x="660" y="-164"/>
      <point x="660" y="-200" type="curve" smooth="yes"/>
      <point x="660" y="-251"/>
      <point x="625" y="-282"/>
      <point x="575" y="-282" type="curve" smooth="yes"/>
      <point x="551" y="-282"/>
      <point x="526" y="-276"/>
      <point x="502" y="-263" type="curve"/>
      <point x="454" y="-395" type="line"/>
      <point x="505" y="-419"/>
      <point x="559" y="-432"/>
      <point x="610" y="-432" type="curve" smooth="yes"/>
      <point x="735" y="-432"/>
      <point x="827" y="-357"/>
      <point x="827" y="-255" type="curve" smooth="yes"/>
      <point x="827" y="-170"/>
      <point x="764" y="-113"/>
      <point x="664" y="-102" type="curve"/>
      <point x="699" y="-28" type="line"/>
      <point x="1014" y="-8"/>
      <point x="1222" y="170"/>
      <point x="1222" y="429" type="curve" smooth="yes"/>
      <point x="1222" y="685"/>
      <point x="1018" y="781"/>
      <point x="822" y="873" type="curve" smooth="yes"/>
      <point x="647" y="955"/>
      <point x="478" y="1035"/>
      <point x="478" y="1228" type="curve" smooth="yes"/>
      <point x="478" y="1383"/>
      <point x="587" y="1479"/>
      <point x="761" y="1479" type="curve" smooth="yes"/>
      <point x="874" y="1479"/>
      <point x="1019" y="1438"/>
      <point x="1159" y="1366" type="curve"/>
      <point x="1178" y="1406" type="line"/>
      <point x="1010" y="1488"/>
      <point x="845" y="1530"/>
      <point x="686" y="1530" type="curve" smooth="yes"/>
      <point x="359" y="1530"/>
      <point x="143" y="1352"/>
      <point x="143" y="1084" type="curve" smooth="yes"/>
      <point x="143" y="820"/>
      <point x="353" y="729"/>
      <point x="550" y="644" type="curve" smooth="yes"/>
      <point x="726" y="568"/>
      <point x="892" y="496"/>
      <point x="892" y="309" type="curve" smooth="yes"/>
      <point x="892" y="141"/>
      <point x="757" y="30"/>
      <point x="555" y="30" type="curve" smooth="yes"/>
      <point x="390" y="30"/>
      <point x="187" y="104"/>
      <point x="71" y="206" type="curve"/>
    </contour>
  </outline>
</glyph>
<glyph name="scedilla" format="1">
  <advance width="969"/>
  <unicode hex="015F"/>
  <outline>
    <contour>
      <point x="70" y="84" type="line"/>
      <point x="179" y="23"/>
      <point x="303" y="-12"/>
      <point x="427" y="-19" type="curve"/>
      <point x="382" y="-135" type="line"/>
      <point x="395" y="-133"/>
      <point x="407" y="-132"/>
      <point x="418" y="-132" type="curve" smooth="yes"/>
      <point x="486" y="-132"/>
      <point x="504" y="-164"/>
      <point x="504" y="-200" type="curve" smooth="yes"/>
      <point x="504" y="-251"/>
      <point x="469" y="-282"/>
      <point x="419" y="-282" type="curve" smooth="yes"/>
      <point x="395" y="-282"/>
      <point x="370" y="-276"/>
      <point x="346" y="-263" type="curve"/>
      <point x="298" y="-395" type="line"/>
      <point x="349" y="-419"/>
      <point x="403" y="-432"/>
      <point x="454" y="-432" type="curve" smooth="yes"/>
      <point x="579" y="-432"/>
      <point x="671" y="-357"/>
      <point x="671" y="-255" type="curve" smooth="yes"/>
      <point x="671" y="-170"/>
      <point x="607" y="-113"/>
      <point x="507" y="-102" type="curve"/>
      <point x="548" y="-16" type="line" name="ih01"/>
      <point x="757" y="6"/>
      <point x="919" y="118"/>
      <point x="919" y="299" type="curve" smooth="yes"/>
      <point x="919" y="462"/>
      <point x="787" y="537"/>
      <point x="664" y="607" type="curve" smooth="yes"/>
      <point x="556" y="668"/>
      <point x="455" y="726"/>
      <point x="455" y="835" type="curve" smooth="yes"/>
      <point x="455" y="918"/>
      <point x="514" y="968"/>
      <point x="611" y="968" type="curve" smooth="yes"/>
      <point x="685" y="968"/>
      <point x="788" y="939"/>
      <point x="859" y="897" type="curve"/>
      <point x="876" y="933" type="line"/>
      <point x="762" y="989"/>
      <point x="636" y="1020"/>
      <point x="515" y="1020" type="curve" smooth="yes"/>
      <point x="264" y="1020"/>
      <point x="87" y="892"/>
      <point x="87" y="710" type="curve" smooth="yes"/>
      <point x="87" y="555"/>
      <point x="214" y="485"/>
      <point x="335" y="417" type="curve" smooth="yes"/>
      <point x="445" y="355"/>
      <point x="551" y="297"/>
      <point x="551" y="179" type="curve" smooth="yes"/>
      <point x="551" y="86"/>
      <point x="485" y="29"/>
      <point x="376" y="29" type="curve" smooth="yes"/>
      <point x="298" y="29"/>
      <point x="207" y="58"/>
      <point x="87" y="120" type="curve"/>
    </contour>
  </outline>
</glyph>
<glyph name="uogonek" format="1">
  <advance width="1259"/>
  <unicode hex="0173"/>
  <outline>
    <contour>
      <point x="1139" y="0" type="line" name="dh01"/>
      <point x="1139" y="1000" type="line" name="at01"/>
      <point x="770" y="1000" type="line"/>
      <point x="770" y="331" type="line" smooth="yes"/>
      <point x="770" y="207"/>
      <point x="712" y="133"/>
      <point x="616" y="133" type="curve" smooth="yes" name="sv01"/>
      <point x="522" y="133"/>
      <point x="469" y="204"/>
      <point x="469" y="331" type="curve" smooth="yes"/>
      <point x="469" y="1000" type="line" name="dh02"/>
      <point x="100" y="1000" type="line" name="ab02"/>
      <point x="100" y="417" type="line" smooth="yes"/>
      <point x="100" y="148"/>
      <point x="243" y="-20"/>
      <point x="472" y="-20" type="curve" smooth="yes" name="at02"/>
      <point x="634" y="-20"/>
      <point x="750" y="65"/>
      <point x="802" y="217" type="curve"/>
      <point x="819" y="0" type="line"/>
      <point x="1035" y="0" type="line" name="ab01"/>
      <point x="891" y="-32"/>
      <point x="797" y="-121"/>
      <point x="797" y="-225" type="curve" smooth="yes"/>
      <point x="797" y="-337"/>
      <point x="904" y="-416"/>
      <point x="1056" y="-416" type="curve" name="av01"/>
      <point x="1085" y="-238" type="line"/>
      <point x="1000" y="-238"/>
      <point x="943" y="-198"/>
      <point x="943" y="-139" type="curve" smooth="yes"/>
      <point x="943" y="-77"/>
      <point x="1003" y="-22"/>
      <point x="1090" y="0" type="curve"/>
    </contour>
  </outline>
</glyph>
<glyph name="Wcircumflex" format="1">
  <advance width="2202"/>
  <unicode hex="0174"/>
  <outline>
    <contour>
      <point x="1581" y="1660" type="line"/>
      <point x="1356" y="2000" type="line" name="at01.2"/>
      <point x="1063" y="2000" type="line" name="at01.1.1"/>
      <point x="838" y="1660" type="line"/>
      <point x="1108" y="1660" type="line" name="av01"/>
      <point x="1210" y="1851" type="line"/>
      <point x="1311" y="1660" type="line" name="av01.1"/>
    </contour>
    <contour>
      <point x="1588" y="0" type="line"/>
      <point x="2172" y="1500" type="line" name="n7"/>
      <point x="2129" y="1500" type="line" name="n0"/>
      <point x="1734" y="485" type="line"/>
      <point x="1338" y="1500" type="line" name="ab02"/>
      <point x="1246" y="1500" type="line" name="n0.1"/>
      <point x="851" y="485" type="line"/>
      <point x="456" y="1500" type="line" name="ab02.1"/>
      <point x="30" y="1500" type="line"/>
      <point x="616" y="0" type="line" name="at02"/>
      <point x="706" y="0" type="line"/>
      <point x="1102" y="1017" type="line"/>
      <point x="1499" y="0" type="line" name="at02.1"/>
    </contour>
  </outline>
</glyph>
<glyph name="zacute" format="1">
  <advance width="1171"/>
  <unicode hex="017A"/>
  <outline>
    <contour>
      <point x="716" y="1160" type="line" name="av01"/>
      <point x="916" y="1500" type="line" name="at01"/>
      <point x="586" y="1500" type="line"/>
      <point x="455" y="1160" type="line"/>
    </contour>
    <contour>
      <point x="1131" y="0" type="line"/>
      <point x="1131" y="38" type="line"/>
      <point x="490" y="38" type="line"/>
      <point x="1115" y="964" type="line"/>
      <point x="1115" y="1000" type="line"/>
      <point x="87" y="1000" type="line"/>
      <point x="87" y="962" type="line"/>
      <point x="662" y="962" type="line"/>
      <point x="40" y="38" type="line"/>
      <point x="40" y="0" type="line"/>
    </contour>
  </outline>
</glyph>
<glyph name="Zcaron" format="1">
  <advance width="1434"/>
  <unicode hex="017D"/>
  <outline>
    <contour>
      <point x="883" y="1660" type="line" name="at01"/>
      <point x="1108" y="2000" type="line"/>
      <point x="839" y="2000" type="line" name="av01"/>
      <point x="737" y="1809" type="line"/>
      <point x="636" y="2000" type="line" name="av01.1"/>
      <point x="366" y="2000" type="line"/>
      <point x="591" y="1660" type="line" name="at01.1"/>
    </contour>
    <contour>
      <point x="1364" y="0" type="line"/>
      <point x="1364" y="42" type="line"/>
      <point x="559" y="42" type="line"/>
      <point x="1324" y="1448" type="line"/>
      <point x="1324" y="1500" type="line"/>
      <point x="130" y="1500" type="line"/>
      <point x="130" y="1458" type="line"/>
      <point x="847" y="1458" type="line"/>
      <point x="70" y="42" type="line"/>
      <point x="70" y="0" type="line"/>
    </contour>
  </outline>
</glyph>
<glyph name="longs" format="1">
  <advance width="811"/>
  <unicode hex="017F"/>
  <outline>
    <contour>
      <point x="516" y="0" type="line" name="ab01.3"/>
      <point x="516" y="1288" type="line" smooth="yes" name="sh01.3"/>
      <point x="516" y="1398"/>
      <point x="576" y="1461"/>
      <point x="673" y="1461" type="curve" smooth="yes"/>
      <point x="701" y="1461"/>
      <point x="732" y="1456"/>
      <point x="766" y="1445" type="curve"/>
      <point x="781" y="1484" type="line"/>
      <point x="693" y="1515"/>
      <point x="609" y="1530"/>
      <point x="533" y="1530" type="curve" smooth="yes"/>
      <point x="288" y="1530"/>
      <point x="120" y="1378"/>
      <point x="120" y="1124" type="curve" smooth="yes"/>
      <point x="120" y="0" type="line" name="dh01.3"/>
    </contour>
  </outline>
</glyph>
<glyph name="dotaccent" format="1">
  <advance width="520"/>
  <unicode hex="02D9"/>
  <outline>
    <contour>
      <point x="260" y="1180" type="curve" smooth="yes"/>
      <point x="344" y="1180"/>
      <point x="400" y="1236"/>
      <point x="400" y="1320" type="curve" smooth="yes"/>
      <point x="400" y="1404"/>
      <point x="344" y="1460"/>
      <point x="260" y="1460" type="curve" smooth="yes"/>
      <point x="176" y="1460"/>
      <point x="120" y="1404"/>
      <point x="120" y="1320" type="curve" smooth="yes"/>
      <point x="120" y="1236"/>
      <point x="176" y="1180"/>
    </contour>
  </outline>
</glyph>
<glyph name="dagger" format="1">
  <advance width="1236"/>
  <unicode hex="2020"/>
  <outline>
    <contour>
      <point x="816" y="0" type="line"/>
      <point x="676" y="895" type="line"/>
      <point x="1116" y="755" type="line"/>
      <point x="1116" y="1100" type="line"/>
      <point x="676" y="960" type="line"/>
      <point x="816" y="1500" type="line" name="at01"/>
      <point x="420" y="1500" type="line"/>
      <point x="560" y="960" type="line"/>
      <point x="120" y="1100" type="line"/>
      <point x="120" y="755" type="line"/>
      <point x="560" y="895" type="line"/>
      <point x="420" y="0" type="line" name="ab01"/>
    </contour>
  </outline>
</glyph>
<glyph name="second" format="1">
  <advance width="810"/>
  <unicode hex="2033"/>
  <outline>
    <contour>
      <point x="326" y="1085" type="line"/>
      <point x="360" y="1520" type="line"/>
      <point x="100" y="1520" type="line"/>
      <point x="134" y="1085" type="line"/>
    </contour>
    <contour>
      <point x="674" y="1085" type="line"/>
      <point x="708" y="1520" type="line"/>
      <point x="448" y="1520" type="line"/>
      <point x="482" y="1085" type="line"/>
    </contour>
  </outline>
</glyph>
<glyph name="guilsinglleft" format="1">
  <advance width="856"/>
  <unicode hex="2039"/>
  <outline>
    <contour>
      <point x="736" y="116" type="line"/>
      <point x="374" y="524" type="line"/>
      <point x="736" y="932" type="line"/>
      <point x="391" y="932" type="line"/>
      <point x="40" y="524" type="line"/>
      <point x="391" y="116" type="line"/>
    </contour>
  </outline>
</glyph>
<glyph name="Euro" format="1">
  <advance width="1021"/>
  <unicode hex="20AC"/>
  <outline>
    <contour>
      <point x="904" y="844" type="line"/>
      <point x="909" y="886" type="line"/>
      <point x="607" y="886" type="line"/>
      <point x="629" y="1276"/>
      <point x="749" y="1488"/>
      <point x="951" y="1488" type="curve"/>
      <point x="951" y="1530" type="line"/>
      <point x="565" y="1530"/>
      <point x="266" y="1262"/>
      <point x="208" y="886" type="curve"/>
      <point x="45" y="886" type="line"/>
      <point x="40" y="844" type="line"/>
      <point x="204" y="844" type="line"/>
      <point x="200" y="811"/>
      <point x="197" y="781"/>
      <point x="197" y="750" type="curve" smooth="yes"/>
      <point x="197" y="719"/>
      <point x="200" y="689"/>
      <point x="204" y="656" type="curve"/>
      <point x="45" y="656" type="line"/>
      <point x="40" y="614" type="line"/>
      <point x="208" y="614" type="line"/>
      <point x="266" y="238"/>
      <point x="565" y="-30"/>
      <point x="951" y="-30" type="curve"/>
      <point x="951" y="12" type="line"/>
      <point x="749" y="12"/>
      <point x="629" y="224"/>
      <point x="607" y="614" type="curve"/>
      <point x="891" y="614" type="line"/>
      <point x="896" y="656" type="line"/>
      <point x="605" y="656" type="line"/>
      <point x="600" y="687"/>
      <point x="598" y="718"/>
      <point x="598" y="750" type="curve" smooth="yes"/>
      <point x="598" y="782"/>
      <point x="600" y="813"/>
      <point x="605" y="844" type="curve"/>
    </contour>
  </outline>
</glyph>
<glyph name="uni2113" format="1">
  <advance width="1136"/>
  <unicode hex="2113"/>
  <outline>
    <contour>
      <point x="1026" y="340" type="curve"/>
      <point x="975" y="352" type="line"/>
      <point x="918" y="203"/>
      <point x="853" y="136"/>
      <point x="770" y="136" type="curve" smooth="yes" name="dv02"/>
      <point x="670" y="136"/>
      <point x="611" y="234"/>
      <point x="611" y="399" type="curve" smooth="yes"/>
      <point x="611" y="642" type="line"/>
      <point x="882" y="781"/>
      <point x="998" y="943"/>
      <point x="998" y="1154" type="curve" smooth="yes" name="sh03"/>
      <point x="998" y="1385"/>
      <point x="859" y="1530"/>
      <point x="646" y="1530" type="curve" smooth="yes"/>
      <point x="396" y="1530"/>
      <point x="215" y="1331"/>
      <point x="215" y="1060" type="curve" smooth="yes"/>
      <point x="215" y="528" type="line"/>
      <point x="157" y="509"/>
      <point x="96" y="491"/>
      <point x="30" y="475" type="curve"/>
      <point x="40" y="435" type="line"/>
      <point x="102" y="451"/>
      <point x="160" y="468"/>
      <point x="215" y="486" type="curve"/>
      <point x="215" y="448" type="line" smooth="yes" name="sh01"/>
      <point x="215" y="171"/>
      <point x="385" y="-30"/>
      <point x="617" y="-30" type="curve" smooth="yes"/>
      <point x="813" y="-30"/>
      <point x="972" y="115"/>
    </contour>
    <contour>
      <point x="611" y="689" type="curve"/>
      <point x="611" y="1213" type="line" smooth="yes"/>
      <point x="611" y="1348"/>
      <point x="671" y="1436"/>
      <point x="762" y="1436" type="curve" smooth="yes"/>
      <point x="869" y="1436"/>
      <point x="953" y="1316"/>
      <point x="953" y="1154" type="curve" smooth="yes" name="ah01"/>
      <point x="953" y="971"/>
      <point x="846" y="818"/>
    </contour>
  </outline>
</glyph>
<glyph name="arrowdown" format="1">
  <advance width="1043"/>
  <unicode hex="2193"/>
  <outline>
    <contour>
      <point x="594" y="1500" type="line"/>
      <point x="450" y="1500" type="line"/>
      <point x="463" y="194" type="line"/>
      <point x="270" y="500" type="line" name="av01.2"/>
      <point x="120" y="500" type="line"/>
      <point x="458" y="0" type="line" name="at01.1"/>
      <point x="584" y="0" type="line" name="at01.2"/>
      <point x="923" y="500" type="line"/>
      <point x="774" y="500" type="line" name="av01.1"/>
      <point x="580" y="194" type="line"/>
    </contour>
  </outline>
</glyph>
<glyph name="product" format="1">
  <advance width="1912"/>
  <unicode hex="220F"/>
  <outline>
    <contour>
      <point x="1662" y="-400" type="line" name="av02"/>
      <point x="1662" y="1458" type="line" name="sv03"/>
      <point x="1862" y="1466" type="line" name="sv02"/>
      <point x="1862" y="1500" type="line"/>
      <point x="50" y="1500" type="line" name="at01"/>
      <point x="50" y="1466" type="line"/>
      <point x="250" y="1458" type="line" name="sv01"/>
      <point x="250" y="-400" type="line" name="av01"/>
      <point x="646" y="-400" type="line" name="sh01"/>
      <point x="646" y="1458" type="line" name="sv05"/>
      <point x="1266" y="1458" type="line" name="sv04"/>
      <point x="1266" y="-400" type="line" name="ah01"/>
    </contour>
  </outline>
</glyph>
<glyph name="divisionslash" format="1">
  <advance width="741"/>
  <unicode hex="2215"/>
  <outline>
    <contour>
      <point x="74" y="-20" type="line" name="av01"/>
      <point x="711" y="1520" type="line" name="at01"/>
      <point x="667" y="1520" type="line"/>
      <point x="30" y="-20" type="line"/>
    </contour>
  </outline>
</glyph>
